# xmcd CD database file
#
# Track frame offsets:
#	150
#	118195
#	197146
#
# Disc length: 3197 seconds
#
# Revision: 0
# Processed by: cddbd v1.4PL0 Copyright (c) Steve Scherf et al.
# Submitted via: CDex 1.50
#
DISCID=260c7b03
DTITLE=Von Freeman Quartet - Young and foolish
DYEAR=1999
DGENRE=Jazz
TTITLE0=I'll close my eyes
TTITLE1=Young and foolish
TTITLE2=Bye bye Blackbird
EXTD=YEAR: 1999
EXTT0=
EXTT1=
EXTT2=
PLAYORDER=
